
<svg id="a" xmlns="http://www.w3.org/2000/svg" width="1014.03" height="1374.01" viewBox="0 0 1014.03 1374.01">
    <path d="m156.09,311.07s556.25-4.65,697.12,0c354.75,269.69.68,994.54,0,993.05-66.25,88.59-624.32,89.76-697.12,0,0,0-344.45-722.82,0-993.05"
          stroke="#fff" stroke-miterlimit="10" stroke-width="6"/>
    <path d="m73.29,401.35c345.93-.45.17,632.94,87.14,902.78" fill="rgba(255,255,255,0)" stroke="#fff"
          stroke-miterlimit="10" stroke-width="6"/>
    <path d="m936.61,404.93c-345.93-.45-.17,632.94-87.14,902.78" fill="rgba(255,255,255,0)" stroke="#fff"
          stroke-miterlimit="10" stroke-width="6"/>
    <path d="m363.01,381.01h288v144s-137.85-65.19-288,0v-144" fill="#fff" stroke="#000" stroke-miterlimit="10"
          stroke-width="6"/>
    <g>
        <path d="m75.01,7.48c-.35,316.42,361.46,272.44,430.38,445.88,0,0-1.73-322.36-1.17-450.35-123.43-1.25-241.4,125.26-428.19,2.88"
              stroke="#000" stroke-miterlimit="10" stroke-width="6"/>
        <path d="m933.4,7.71c.35,316.42-361.46,272.44-430.38,445.88,0,0,1.73-322.36,1.17-450.35,123.43-1.25,241.4,125.26,428.19,2.88"
              stroke="#000" stroke-miterlimit="10" stroke-width="6"/>
    </g>
    <path d="m741.01,147.01c108.9,0,198,89.1,198,198s-89.1,198-198,198-198-89.1-198-198,89.1-198,198-198" stroke="#fff"
          stroke-miterlimit="10" stroke-width="6"/>
    <path d="m273.01,147.01c108.9,0,198,89.1,198,198s-89.1,198-198,198-198-89.1-198-198,89.1-198,198-198" stroke="#fff"
          stroke-miterlimit="10" stroke-width="6"/>
    <path d="m741.01,165.01c99,0,180,81,180,180s-81,180-180,180c-99,0-180-81-180-180,0-99,81-180,180-180" stroke="#fff"
          stroke-miterlimit="10" stroke-width="6"/>
    <path d="m273.01,165.01c99,0,180,81,180,180s-81,180-180,180c-99,0-180-81-180-180,0-99,81-180,180-180" stroke="#fff"
          stroke-miterlimit="10" stroke-width="6"/>
    <path d="m741.21,165.01c-.2,0-.2,360-.2,360" fill="rgba(255,255,255,0)" stroke="#fff" stroke-miterlimit="10"
          stroke-width="6"/>
    <path d="m273.21,165.01c-.2,0-.2,360-.2,360" fill="rgba(255,255,255,0)" stroke="#fff" stroke-miterlimit="10"
          stroke-width="6"/>
    <path d="m846.83,199.59c-.16-.12-211.76,291.13-211.76,291.13" fill="rgba(255,255,255,0)" stroke="#fff"
          stroke-miterlimit="10" stroke-width="6"/>
    <path d="m378.83,199.59c-.16-.12-211.76,291.13-211.76,291.13" fill="rgba(255,255,255,0)" stroke="#fff"
          stroke-miterlimit="10" stroke-width="6"/>
    <path d="m911.95,289.64c-.06-.19-342.44,111.06-342.44,111.06" fill="rgba(255,255,255,0)" stroke="#fff"
          stroke-miterlimit="10" stroke-width="6"/>
    <path d="m443.95,289.64c-.06-.19-342.44,111.06-342.44,111.06" fill="rgba(255,255,255,0)" stroke="#fff"
          stroke-miterlimit="10" stroke-width="6"/>
    <path d="m911.7,400.77c.06-.19-342.32-111.44-342.32-111.44" fill="rgba(255,255,255,0)" stroke="#fff"
          stroke-miterlimit="10" stroke-width="6"/>
    <path d="m443.7,400.77c.06-.19-342.32-111.44-342.32-111.44" fill="rgba(255,255,255,0)" stroke="#fff"
          stroke-miterlimit="10" stroke-width="6"/>
    <path d="m846.18,490.53c.16-.12-211.44-291.36-211.44-291.36" fill="rgba(255,255,255,0)" stroke="#fff"
          stroke-miterlimit="10" stroke-width="6"/>
    <path d="m378.18,490.53c.16-.12-211.44-291.36-211.44-291.36" fill="rgba(255,255,255,0)" stroke="#fff"
          stroke-miterlimit="10" stroke-width="6"/>
    <g>
        <path d="m102.01,615.01c14.85,0,27,12.15,27,27s-12.15,27-27,27-27-12.15-27-27,12.15-27,27-27" fill="#fff"
              stroke="rgba(255,255,255,0)" stroke-miterlimit="10" stroke-width="6"/>
        <path d="m84.01,525.01c14.85,0,27,12.15,27,27s-12.15,27-27,27-27-12.15-27-27,12.15-27,27-27" fill="#fff"
              stroke="rgba(255,255,255,0)" stroke-miterlimit="10" stroke-width="6"/>
        <path d="m174.01,561.01c14.85,0,27,12.15,27,27s-12.15,27-27,27-27-12.15-27-27,12.15-27,27-27" fill="#fff"
              stroke="rgba(255,255,255,0)" stroke-miterlimit="10" stroke-width="6"/>
        <path d="m174.01,669.01c14.85,0,27,12.15,27,27s-12.15,27-27,27-27-12.15-27-27,12.15-27,27-27" fill="#fff"
              stroke="rgba(255,255,255,0)" stroke-miterlimit="10" stroke-width="6"/>
        <path d="m66.01,687.01c14.85,0,27,12.15,27,27s-12.15,27-27,27-27-12.15-27-27,12.15-27,27-27" fill="#fff"
              stroke="rgba(255,255,255,0)" stroke-miterlimit="10" stroke-width="6"/>
        <path d="m138.01,741.01c14.85,0,27,12.15,27,27s-12.15,27-27,27-27-12.15-27-27,12.15-27,27-27" fill="#fff"
              stroke="rgba(255,255,255,0)" stroke-miterlimit="10" stroke-width="6"/>
        <path d="m66.01,795.01c14.85,0,27,12.15,27,27s-12.15,27-27,27-27-12.15-27-27,12.15-27,27-27" fill="#fff"
              stroke="rgba(255,255,255,0)" stroke-miterlimit="10" stroke-width="6"/>
        <path d="m156.01,831.01c14.85,0,27,12.15,27,27s-12.15,27-27,27-27-12.15-27-27,12.15-27,27-27" fill="#fff"
              stroke="rgba(255,255,255,0)" stroke-miterlimit="10" stroke-width="6"/>
        <path d="m84.01,885.01c14.85,0,27,12.15,27,27s-12.15,27-27,27-27-12.15-27-27,12.15-27,27-27" fill="#fff"
              stroke="rgba(255,255,255,0)" stroke-miterlimit="10" stroke-width="6"/>
        <path d="m120.01,975.01c14.85,0,27,12.15,27,27s-12.15,27-27,27-27-12.15-27-27,12.15-27,27-27" fill="#fff"
              stroke="rgba(255,255,255,0)" stroke-miterlimit="10" stroke-width="6"/>
    </g>
    <g>
        <path d="m912.01,615.01c-14.85,0-27,12.15-27,27s12.15,27,27,27,27-12.15,27-27-12.15-27-27-27" fill="#fff"
              stroke="rgba(255,255,255,0)" stroke-miterlimit="10" stroke-width="6"/>
        <path d="m930.01,525.01c-14.85,0-27,12.15-27,27s12.15,27,27,27,27-12.15,27-27-12.15-27-27-27" fill="#fff"
              stroke="rgba(255,255,255,0)" stroke-miterlimit="10" stroke-width="6"/>
        <path d="m840.01,561.01c-14.85,0-27,12.15-27,27s12.15,27,27,27,27-12.15,27-27-12.15-27-27-27" fill="#fff"
              stroke="rgba(255,255,255,0)" stroke-miterlimit="10" stroke-width="6"/>
        <path d="m840.01,669.01c-14.85,0-27,12.15-27,27s12.15,27,27,27,27-12.15,27-27-12.15-27-27-27" fill="#fff"
              stroke="rgba(255,255,255,0)" stroke-miterlimit="10" stroke-width="6"/>
        <path d="m948.01,687.01c-14.85,0-27,12.15-27,27s12.15,27,27,27,27-12.15,27-27-12.15-27-27-27" fill="#fff"
              stroke="rgba(255,255,255,0)" stroke-miterlimit="10" stroke-width="6"/>
        <path d="m876.01,741.01c-14.85,0-27,12.15-27,27s12.15,27,27,27,27-12.15,27-27-12.15-27-27-27" fill="#fff"
              stroke="rgba(255,255,255,0)" stroke-miterlimit="10" stroke-width="6"/>
        <path d="m948.01,795.01c-14.85,0-27,12.15-27,27s12.15,27,27,27,27-12.15,27-27-12.15-27-27-27" fill="#fff"
              stroke="rgba(255,255,255,0)" stroke-miterlimit="10" stroke-width="6"/>
        <path d="m858.01,831.01c-14.85,0-27,12.15-27,27s12.15,27,27,27,27-12.15,27-27-12.15-27-27-27" fill="#fff"
              stroke="rgba(255,255,255,0)" stroke-miterlimit="10" stroke-width="6"/>
        <path d="m930.01,885.01c-14.85,0-27,12.15-27,27s12.15,27,27,27,27-12.15,27-27-12.15-27-27-27" fill="#fff"
              stroke="rgba(255,255,255,0)" stroke-miterlimit="10" stroke-width="6"/>
        <path d="m894.01,975.01c-14.85,0-27,12.15-27,27s12.15,27,27,27,27-12.15,27-27-12.15-27-27-27" fill="#fff"
              stroke="rgba(255,255,255,0)" stroke-miterlimit="10" stroke-width="6"/>
    </g>
    <path d="m219.01,795.01h576" fill="rgba(255,255,255,0)" stroke="#fff" stroke-miterlimit="10" stroke-width="6"/>
    <path d="m183.01,993.01h648" fill="rgba(255,255,255,0)" stroke="#fff" stroke-miterlimit="10" stroke-width="6"/>
    <path d="m237.01,615.01l126,162,144-252,144,252,126-162" fill="rgba(255,255,255,0)" stroke="#fff"
          stroke-miterlimit="10" stroke-width="6"/>
    <path d="m507.01,1029.01l-108,144,108,144,108-144-108-144" fill="rgba(255,255,255,0)" stroke="#fff"
          stroke-miterlimit="10" stroke-width="6"/>
    <path d="m741.01,1029.01l-108,144,108,144,108-144-108-144" fill="rgba(255,255,255,0)" stroke="#fff"
          stroke-miterlimit="10" stroke-width="6"/>
    <path d="m273.01,1029.01l-108,144,108,144,108-144-108-144" fill="rgba(255,255,255,0)" stroke="#fff"
          stroke-miterlimit="10" stroke-width="6"/>
    <path d="m506.19,1094.62l-60.75,81,60.75,81,60.75-81-60.75-81" fill="#fff" stroke="#fff" stroke-miterlimit="10"
          stroke-width="6"/>
    <path d="m270.81,1094l-60.75,81,60.75,81,60.75-81-60.75-81" fill="#fff" stroke="#fff" stroke-miterlimit="10"
          stroke-width="6"/>
    <path d="m738.59,1092l-60.75,81,60.75,81,60.75-81-60.75-81" fill="#fff" stroke="#fff" stroke-miterlimit="10"
          stroke-width="6"/>
    <g>
        <path d="m293.56,831.01c8.25,0,15.01,6.75,15.01,15.01s-8.67,32.9-14.68,32.96c-6.27.14-15.33-24.71-15.33-32.96s6.75-15.01,15.01-15.01"
              fill="#fff" stroke="rgba(0,0,0,0)" stroke-miterlimit="10" stroke-width="2"/>
        <path d="m348.13,862.49c4.13,7.15,1.66,16.37-5.49,20.5-7.15,4.13-32.83,8.94-35.89,3.77-3.25-5.36,13.73-25.64,20.88-29.76,7.15-4.13,16.37-1.66,20.5,5.49"
              fill="#fff" stroke="rgba(0,0,0,0)" stroke-miterlimit="10" stroke-width="2"/>
        <path d="m348.15,925.49c-4.13,7.15-13.35,9.62-20.5,5.49-7.15-4.13-24.16-23.96-21.21-29.2,3.02-5.5,29.07-.93,36.22,3.2,7.15,4.13,9.62,13.35,5.49,20.5"
              fill="#fff" stroke="rgba(0,0,0,0)" stroke-miterlimit="10" stroke-width="2"/>
        <path d="m293.6,957.01c-8.25,0-15.01-6.75-15.01-15.01,0-8.25,8.67-32.9,14.68-32.96,6.27-.14,15.34,24.71,15.34,32.96s-6.75,15.01-15.01,15.01"
              fill="#fff" stroke="rgba(0,0,0,0)" stroke-miterlimit="10" stroke-width="2"/>
        <path d="m239.03,925.53c-4.13-7.15-1.66-16.37,5.49-20.5,7.15-4.13,32.83-8.94,35.89-3.77,3.25,5.36-13.73,25.64-20.88,29.76-7.15,4.13-16.37,1.66-20.5-5.49"
              fill="#fff" stroke="rgba(0,0,0,0)" stroke-miterlimit="10" stroke-width="2"/>
        <path d="m239.01,862.53c4.13-7.15,13.35-9.62,20.5-5.49,7.15,4.13,24.16,23.96,21.21,29.2-3.02,5.5-29.07.93-36.22-3.2-7.15-4.13-9.62-13.35-5.49-20.5"
              fill="#fff" stroke="rgba(0,0,0,0)" stroke-miterlimit="10" stroke-width="2"/>
        <path d="m293.56,885.04c4.95,0,9,4.05,9,9s-4.05,9-9,9-9-4.05-9-9,4.05-9,9-9" fill="#fff" stroke="rgba(0,0,0,0)"
              stroke-miterlimit="10" stroke-width="2"/>
    </g>
    <g>
        <path d="m437.56,831.01c8.25,0,15.01,6.75,15.01,15.01s-8.67,32.9-14.68,32.96c-6.27.14-15.33-24.71-15.33-32.96s6.75-15.01,15.01-15.01"
              fill="#fff" stroke="rgba(0,0,0,0)" stroke-miterlimit="10" stroke-width="2"/>
        <path d="m492.13,862.49c4.13,7.15,1.66,16.37-5.49,20.5-7.15,4.13-32.83,8.94-35.89,3.77-3.25-5.36,13.73-25.64,20.88-29.76,7.15-4.13,16.37-1.66,20.5,5.49"
              fill="#fff" stroke="rgba(0,0,0,0)" stroke-miterlimit="10" stroke-width="2"/>
        <path d="m492.15,925.49c-4.13,7.15-13.35,9.62-20.5,5.49-7.15-4.13-24.16-23.96-21.21-29.2,3.02-5.5,29.07-.93,36.22,3.2,7.15,4.13,9.62,13.35,5.49,20.5"
              fill="#fff" stroke="rgba(0,0,0,0)" stroke-miterlimit="10" stroke-width="2"/>
        <path d="m437.6,957.01c-8.25,0-15.01-6.75-15.01-15.01,0-8.25,8.67-32.9,14.68-32.96,6.27-.14,15.34,24.71,15.34,32.96s-6.75,15.01-15.01,15.01"
              fill="#fff" stroke="rgba(0,0,0,0)" stroke-miterlimit="10" stroke-width="2"/>
        <path d="m383.03,925.53c-4.13-7.15-1.66-16.37,5.49-20.5,7.15-4.13,32.83-8.94,35.89-3.77,3.25,5.36-13.73,25.64-20.88,29.76-7.15,4.13-16.37,1.66-20.5-5.49"
              fill="#fff" stroke="rgba(0,0,0,0)" stroke-miterlimit="10" stroke-width="2"/>
        <path d="m383.01,862.53c4.13-7.15,13.35-9.62,20.5-5.49,7.15,4.13,24.16,23.96,21.21,29.2-3.02,5.5-29.07.93-36.22-3.2-7.15-4.13-9.62-13.35-5.49-20.5"
              fill="#fff" stroke="rgba(0,0,0,0)" stroke-miterlimit="10" stroke-width="2"/>
        <path d="m437.56,885.04c4.95,0,9,4.05,9,9s-4.05,9-9,9-9-4.05-9-9,4.05-9,9-9" fill="#fff" stroke="rgba(0,0,0,0)"
              stroke-miterlimit="10" stroke-width="2"/>
    </g>
    <g>
        <path d="m581.56,831.01c8.25,0,15.01,6.75,15.01,15.01s-8.67,32.9-14.68,32.96c-6.27.14-15.33-24.71-15.33-32.96s6.75-15.01,15.01-15.01"
              fill="#fff" stroke="rgba(0,0,0,0)" stroke-miterlimit="10" stroke-width="2"/>
        <path d="m636.13,862.49c4.13,7.15,1.66,16.37-5.49,20.5-7.15,4.13-32.83,8.94-35.89,3.77-3.25-5.36,13.73-25.64,20.88-29.76,7.15-4.13,16.37-1.66,20.5,5.49"
              fill="#fff" stroke="rgba(0,0,0,0)" stroke-miterlimit="10" stroke-width="2"/>
        <path d="m636.15,925.49c-4.13,7.15-13.35,9.62-20.5,5.49-7.15-4.13-24.16-23.96-21.21-29.2,3.02-5.5,29.07-.93,36.22,3.2,7.15,4.13,9.62,13.35,5.49,20.5"
              fill="#fff" stroke="rgba(0,0,0,0)" stroke-miterlimit="10" stroke-width="2"/>
        <path d="m581.6,957.01c-8.25,0-15.01-6.75-15.01-15.01,0-8.25,8.67-32.9,14.68-32.96,6.27-.14,15.34,24.71,15.34,32.96s-6.75,15.01-15.01,15.01"
              fill="#fff" stroke="rgba(0,0,0,0)" stroke-miterlimit="10" stroke-width="2"/>
        <path d="m527.03,925.53c-4.13-7.15-1.66-16.37,5.49-20.5,7.15-4.13,32.83-8.94,35.89-3.77,3.25,5.36-13.73,25.64-20.88,29.76-7.15,4.13-16.37,1.66-20.5-5.49"
              fill="#fff" stroke="rgba(0,0,0,0)" stroke-miterlimit="10" stroke-width="2"/>
        <path d="m527.01,862.53c4.13-7.15,13.35-9.62,20.5-5.49,7.15,4.13,24.16,23.96,21.21,29.2-3.02,5.5-29.07.93-36.22-3.2-7.15-4.13-9.62-13.35-5.49-20.5"
              fill="#fff" stroke="rgba(0,0,0,0)" stroke-miterlimit="10" stroke-width="2"/>
        <path d="m581.56,885.04c4.95,0,9,4.05,9,9s-4.05,9-9,9-9-4.05-9-9,4.05-9,9-9" fill="#fff" stroke="rgba(0,0,0,0)"
              stroke-miterlimit="10" stroke-width="2"/>
    </g>
    <g>
        <path d="m725.56,831.01c8.25,0,15.01,6.75,15.01,15.01s-8.67,32.9-14.68,32.96c-6.27.14-15.33-24.71-15.33-32.96s6.75-15.01,15.01-15.01"
              fill="#fff" stroke="rgba(0,0,0,0)" stroke-miterlimit="10" stroke-width="2"/>
        <path d="m780.13,862.49c4.13,7.15,1.66,16.37-5.49,20.5-7.15,4.13-32.83,8.94-35.89,3.77-3.25-5.36,13.73-25.64,20.88-29.76,7.15-4.13,16.37-1.66,20.5,5.49"
              fill="#fff" stroke="rgba(0,0,0,0)" stroke-miterlimit="10" stroke-width="2"/>
        <path d="m780.15,925.49c-4.13,7.15-13.35,9.62-20.5,5.49s-24.16-23.96-21.21-29.2c3.02-5.5,29.07-.93,36.22,3.2,7.15,4.13,9.62,13.35,5.49,20.5"
              fill="#fff" stroke="rgba(0,0,0,0)" stroke-miterlimit="10" stroke-width="2"/>
        <path d="m725.6,957.01c-8.25,0-15.01-6.75-15.01-15.01,0-8.25,8.67-32.9,14.68-32.96,6.27-.14,15.34,24.71,15.34,32.96s-6.75,15.01-15.01,15.01"
              fill="#fff" stroke="rgba(0,0,0,0)" stroke-miterlimit="10" stroke-width="2"/>
        <path d="m671.03,925.53c-4.13-7.15-1.66-16.37,5.49-20.5,7.15-4.13,32.83-8.94,35.89-3.77,3.25,5.36-13.73,25.64-20.88,29.76-7.15,4.13-16.37,1.66-20.5-5.49"
              fill="#fff" stroke="rgba(0,0,0,0)" stroke-miterlimit="10" stroke-width="2"/>
        <path d="m671.01,862.53c4.13-7.15,13.35-9.62,20.5-5.49,7.15,4.13,24.16,23.96,21.21,29.2-3.02,5.5-29.07.93-36.22-3.2-7.15-4.13-9.62-13.35-5.49-20.5"
              fill="#fff" stroke="rgba(0,0,0,0)" stroke-miterlimit="10" stroke-width="2"/>
        <path d="m725.56,885.04c4.95,0,9,4.05,9,9s-4.05,9-9,9-9-4.05-9-9,4.05-9,9-9" fill="#fff" stroke="rgba(0,0,0,0)"
              stroke-miterlimit="10" stroke-width="2"/>
    </g>
    <path d="m241.33,580l119.6,154.59,121.57-215.71" fill="rgba(255,255,255,0)" stroke="#fff" stroke-miterlimit="10"
          stroke-width="6"/>
    <path d="m773.37,582.61l-119.6,154.59-121.57-215.71" fill="rgba(255,255,255,0)" stroke="#fff" stroke-miterlimit="10"
          stroke-width="6"/>
    <path d="m353.83,552.98l-43.39,57.86,43.39,57.86,43.39-57.86-43.39-57.86" fill="#fff" stroke="#fff"
          stroke-miterlimit="10" stroke-width="6"/>
    <path d="m660.9,550.91l-43.39,57.86,43.39,57.86,43.39-57.86-43.39-57.86" fill="#fff" stroke="#fff"
          stroke-miterlimit="10" stroke-width="6"/>
    <path d="m505.58,649.65l-43.39,57.86,43.39,57.86,43.39-57.86-43.39-57.86" fill="#fff" stroke="#fff"
          stroke-miterlimit="10" stroke-width="6"/>
    <g>
        <path d="m623.32,317.98c36.39-.19,35.91-43.72,89.21-44.07,53.93-.35,55.29,43.86,90.79,44.07" stroke="#fff"
              stroke-miterlimit="10" stroke-width="6"/>
        <path d="m641.73,314.51c19.07,90.39,126.49,88.99,144,0" stroke="#fff" stroke-miterlimit="10" stroke-width="6"/>
    </g>
    <path d="m710.25,299.78c12.08,0,21.97,9.89,21.97,21.97s-9.89,21.97-21.97,21.97-21.97-9.89-21.97-21.97,9.89-21.97,21.97-21.97"
          stroke="#fff" stroke-miterlimit="10" stroke-width="6"/>
    <g>
        <path d="m396.17,314.24c-36.39-.19-35.91-43.72-89.21-44.07-53.93-.35-55.29,43.86-90.79,44.07" stroke="#fff"
              stroke-miterlimit="10" stroke-width="6"/>
        <path d="m377.77,310.77c-19.07,90.39-126.49,88.99-144,0" stroke="#fff" stroke-miterlimit="10" stroke-width="6"/>
    </g>
    <path d="m309.24,296.05c-12.08,0-21.97,9.89-21.97,21.97s9.89,21.97,21.97,21.97,21.97-9.89,21.97-21.97-9.89-21.97-21.97-21.97"
          stroke="#fff" stroke-miterlimit="10" stroke-width="6"/>
</svg>